<svg xmlns="http://www.w3.org/2000/svg" width="93" height="88"><path fill="#d90d32" fill-rule="evenodd" d="M39.25 3.498 37 6.972V8h10V6.972l-2.25-3.474L42.5.025h-1l-2.25 3.473M25 13.752v.752L27 25l2 10.496v.705L23.419 31.1l-5.58-5.1h-1.596l-1.186 2.863-1.186 2.862-6.176-1.289-6.176-1.288-.204.203-.204.204 1.595 6.332 1.595 6.333-1.752 2.967-1.753 2.967 2.225 2.368 2.225 2.368 7.377 6.281L20 65.451v9.684l1.75-.495 1.75-.495 5.25-.667 5.25-.666V18.025l-3.98-2.512L26.04 13H25v.752m28.75 1.821L50 18.029v54.783l5.25.666 5.25.667 1.75.495 1.75.495v-9.656l8.087-6.99 8.087-6.989 1.968-1.546 1.967-1.545-2.218-2.821-2.219-2.82 1.586-6.629 1.586-6.628-.181-.182-.182-.181-6.176 1.288-6.176 1.289-1.186-2.862L67.757 26h-1.358l-5.75 5.125-5.75 5.125.53-2.375.529-2.375 1.521-8.36L59 14.779V13l-.75.059-.75.059-3.75 2.455M40 25v8h4V17h-4v8m0 27v8h4V44h-4v8m0 28v8h4V72h-4v8"/></svg>
