<svg xmlns="http://www.w3.org/2000/svg" width="125" height="24" fill="none"><path fill="#000" fill-rule="evenodd" d="M121.444 22.128h3.555l.001-9.04a6.179 6.179 0 0 0-.206-1.602c-.702-2.579-3.217-4.364-5.983-4.25-1.283.054-2.49.53-3.586 1.412l-.14.113-.14-.113c-1.096-.882-2.303-1.357-3.586-1.412-2.769-.116-5.281 1.671-5.983 4.25a6.099 6.099 0 0 0-.206 1.602l.001 9.04h3.555v-8.887a2.289 2.289 0 0 1 4.578 0v8.887h3.562l.001-8.908a2.289 2.289 0 0 1 4.577.02v8.888zm-26.27-3.548a3.896 3.896 0 0 1-3.897-3.886 3.896 3.896 0 0 1 3.897-3.886 3.896 3.896 0 0 1 3.897 3.886 3.896 3.896 0 0 1-3.897 3.887m0-11.321c-4.11 0-7.455 3.335-7.455 7.434 0 4.1 3.344 7.435 7.455 7.435 4.111 0 7.455-3.335 7.455-7.435S99.285 7.26 95.174 7.26M82.906 22.132h4.612l-2.063-3.552-2.429-.003c-1.147 0-2.146-.826-2.227-1.842-.01-.133-.02-.298-.027-.479v-5.355h4.682l1.83-3.21h-6.512V1.867L77.21 4.324V7.52h-2.247v3.552h2.247l.003 4.85c0 .001-.002.226.001.29l.014.27c.122 2.355 1.285 4.09 3.456 5.153.581.285 1.224.442 2.023.494h.2v.003zm-14.042-.004h3.555v-9.04a6.181 6.181 0 0 0-.206-1.602c-.701-2.579-3.216-4.364-5.982-4.25-1.283.054-2.49.53-3.586 1.412l-.14.113-.14-.113c-1.096-.882-2.303-1.357-3.586-1.412-2.769-.116-5.281 1.671-5.983 4.25a6.116 6.116 0 0 0-.206 1.602v9.04h3.556v-8.887a2.288 2.288 0 0 1 4.578 0v8.887h3.562V13.22a2.288 2.288 0 0 1 4.577.02v8.888zm-26.27-3.548a3.896 3.896 0 0 1-3.897-3.886 3.896 3.896 0 0 1 3.897-3.886 3.896 3.896 0 0 1 3.897 3.886 3.896 3.896 0 0 1-3.897 3.887m0-11.321c-4.11 0-7.455 3.335-7.455 7.434 0 4.1 3.344 7.435 7.455 7.435 4.11 0 7.455-3.335 7.455-7.435S46.705 7.26 42.594 7.26M30.326 22.132h4.612l-2.064-3.552-2.428-.003c-1.147 0-2.146-.826-2.227-1.842-.01-.133-.02-.298-.027-.479v-5.355h4.682l1.83-3.21h-6.512V1.867L24.63 4.324V7.52h-2.247v3.552h2.247l.003 4.85c0 .001-.002.226.001.29l.014.27c.122 2.355 1.285 4.09 3.456 5.153.581.285 1.224.442 2.023.494h.2v.003z" clip-rule="evenodd"/><path fill="#DF1B12" fill-rule="evenodd" d="m8.288 24 3.176-5.486H5.11L8.288 24zm-.001-11.416a4.33 4.33 0 0 1-4.332-4.32 4.33 4.33 0 0 1 4.332-4.32 4.33 4.33 0 0 1 4.332 4.32c0 2.382-1.944 4.32-4.332 4.32M8.287 0C3.717 0 0 3.707 0 8.264c0 4.557 3.717 8.264 8.287 8.264s8.287-3.707 8.287-8.264C16.574 3.707 12.856 0 8.287 0" clip-rule="evenodd"/></svg>